# xmcd CD database file
#
# Track frame offsets:
#	150
#	22207
#	36982
#	58732
#	69335
#	86125
#	102430
#	118835
#	136140
#	154145
#	170392
#	187405
#	207425
#	218445
#	235980
#	253190
#	286287
#	302707
#
# Disc length: 4209 seconds
#
# Revision: 6
# Processed by: cddbd v1.5.2PL0 Copyright (c) Steve Scherf et al.
# Submitted via: CDex 1.91
#
DISCID=14106f12
DTITLE=Various Artist - Adventures In Music 13 Blues Sampler
DYEAR=1990
DGENRE=Blues
TTITLE0=Big Jack Johnson - Mr. U.S. A.I.D.S.
TTITLE1=Silent Partners - Under Yonder
TTITLE2=Earl King - Time For The Sun To Rise
TTITLE3=Charles Brown - Tell Me Who
TTITLE4=Bobby Radcliff - Ugh!
TTITLE5=George Gritzbach - Monkey Man
TTITLE6=Fred Mcdowell - Write Me A Few Lines
TTITLE7=Lightnin' Hopkins - Bad Luck And Trouble
TTITLE8=Country Joe Mcdonald - Superstitious Blues
TTITLE9=The Nighthawks - Gotta Get My Babay Back
TTITLE10=Lowell Fulson - One More Blues
TTITLE11=Johnnie Johnson, Clayton Love, Jimmy Vaughn - Bluebird
TTITLE12=Professor Longhair - Mardi Gras In New Orleans
TTITLE13=Natasha - Nothing At All
TTITLE14=Vala Cupp - Six Eggs And A Pint Of Vodka
TTITLE15=Roosevelt "Booba" Barnes - Heartbroken Man
TTITLE16=Mama Roo - Back Door Man
TTITLE17=John Mooney - Country Gal
EXTD=YEAR: 1990
EXTT0=
EXTT1=
EXTT2=
EXTT3=
EXTT4=
EXTT5=
EXTT6=
EXTT7=
EXTT8=
EXTT9=
EXTT10=
EXTT11=
EXTT12=
EXTT13=
EXTT14=
EXTT15=
EXTT16=
EXTT17=
PLAYORDER=
